# xmcd
#
# Track frame offsets:
#	150
#	16938
#	29492
#	42608
#	59412
#	69616
#	83512
#	95903
#	108508
#	126753
#	138638
#	149511
#	166863
#
# Disc length: 2478 seconds
#
# Revision: 0
# Processed by: cddbd v1.4b41PL3 Copyright (c) Steve Scherf et al.
# Submitted via: audiograbber 1.80
#
DISCID=be09ac0d
DTITLE=Matpackers - Redningsmann
DYEAR=1900
DGENRE=
TTITLE0=Hovda
TTITLE1=At Hu Ga Meg Et Smil
TTITLE2=Tungsinn
TTITLE3=Beksvarte Ravnar
TTITLE4=Redningsmann
TTITLE5=Takk Ska Du Ha
TTITLE6=Vekke
TTITLE7=Bakom Skyer
TTITLE8=Strie Strømmar
TTITLE9=Spelemann
TTITLE10=Daue Tre
TTITLE11=Bevernylon
TTITLE12=Håle te Kina
EXTD=
EXTT0=
EXTT1=
EXTT2=
EXTT3=
EXTT4=
EXTT5=
EXTT6=
EXTT7=
EXTT8=
EXTT9=
EXTT10=
EXTT11=
EXTT12=
PLAYORDER=
